<svg xmlns="http://www.w3.org/2000/svg" viewBox="0 0 131.65 183.06"><path d="M119.62 12.02C119.37 5.35 113.87 0 107.14 0H12.5C5.61 0 0 5.61 0 12.5v146.06c0 6.73 5.35 12.22 12.02 12.48.25 6.67 5.75 12.02 12.48 12.02h94.64c6.89 0 12.5-5.61 12.5-12.5V24.5c0-6.73-5.35-12.22-12.02-12.48Z"/><path d="M12.5 5h94.64c4.14 0 7.5 3.36 7.5 7.5v146.06c0 4.14-3.36 7.5-7.5 7.5H12.5c-4.14 0-7.5-3.36-7.5-7.5V12.5C5 8.36 8.36 5 12.5 5Z" style="fill:#fff"/><path d="M19.51 31.55c0-8.43 2.56-11.97 9.13-11.97s9.13 3.55 9.13 11.97-2.56 11.97-9.13 11.97-9.13-3.56-9.13-11.97Zm9.13 6.93c2.54 0 4.03-1.13 4.03-6.93s-1.39-6.93-4.03-6.93-4.03 1.12-4.03 6.93 1.5 6.93 4.03 6.93ZM41.07 44.4V27.98c0-1.84.9-2.74 2.75-2.74h7.22c5.6 0 7.29 3.53 7.29 7.96 0 5.19-2.34 8.5-7.2 8.5-2.41 0-4.02-.81-4.77-2.2h-.22v4.9c0 .83-.45 1.28-1.28 1.28h-2.52c-.83 0-1.28-.45-1.28-1.28Zm8.53-7.33c2.4 0 3.78-1.08 3.78-3.78s-1.33-3.93-3.89-3.93h-2.16c-.81 0-1.19.36-1.19 1.19v4c0 2.12 1.98 2.52 3.46 2.52ZM61.75 34.25c0-5.78 3.1-9.36 8.75-9.36h.65c5.58 0 7.74 3.46 7.74 7.9 0 1.98-.45 2.95-2.32 2.95l-9.85-.02c.22 2.3 1.42 3.58 5.69 3.58h.23c2.12 0 3.21-.29 3.89-.34.58-.04 1.06.34 1.06 1.06v1.51c0 1.44-3.15 1.98-5.74 1.98h-.4c-6.1 0-9.71-3.01-9.71-9.27Zm12.75-2.02c-.16-2.05-1.22-3.02-3.58-3.02h-.2c-2.21 0-3.49.86-3.89 3.02h7.67ZM94.62 41.79v-8.34c0-2.43-.85-3.87-3.46-3.87-2.47 0-3.44 1.44-3.44 3.87v8.34c0 .83-.47 1.28-1.28 1.28h-2.52c-.83 0-1.28-.45-1.28-1.28V26.52c0-.83.45-1.28 1.28-1.28h2.41c.79 0 1.26.43 1.3 1.24l.09 1.89h.58c.83-1.84 2.03-3.49 5.51-3.49 4.38 0 5.89 2.67 5.89 6.82v10.08c0 .83-.47 1.28-1.3 1.28h-2.5c-.83 0-1.28-.45-1.28-1.28ZM31.95 77.79V70.1h-6.63v7.69c0 .83-.45 1.28-1.28 1.28h-2.7c-.83 0-1.28-.45-1.28-1.28V57.3c0-.83.45-1.28 1.28-1.28h2.7c.83 0 1.28.45 1.28 1.28v8.16h6.63V57.3c0-.83.47-1.28 1.28-1.28h2.7c.83 0 1.3.45 1.3 1.28v20.49c0 .83-.47 1.28-1.3 1.28h-2.7c-.81 0-1.28-.45-1.28-1.28ZM48.56 65.23c-2.36 0-3.46.2-4.25.29-.67.07-1.42-.4-1.42-1.37v-1.17c0-1.53 3.24-2.09 6.73-2.09 4.74 0 7.8 1.03 7.8 6.23v10.77c0 .68-.41 1.19-1.15 1.19H54.2c-.65 0-1.12-.47-1.28-1.19l-.36-1.78c-.85 1.84-2.47 3.42-5.47 3.42h-.54c-3.35 0-5.8-1.76-5.8-5.65 0-3.38 1.87-5.55 5.58-5.55h6.12v-.54c0-2.36-1.28-2.56-3.89-2.56Zm-.38 10.41h.5c1.96 0 3.76-.99 3.76-3.29v-.52h-4.81c-1.48 0-1.96.74-1.96 1.85s.5 1.96 2.5 1.96ZM61.75 70.03c0-4.88 2.5-9.15 8.75-9.15h.76c4.36 0 7.29 2.09 7.29 5.64 0 1.6-.63 2.72-2.2 2.72h-.09c-1.39 0-1.87-.83-2.07-1.71-.32-1.26-1.31-2.11-3.28-2.11h-.18c-3.22 0-4.05 2.29-4.05 4.55 0 3.67 2.2 5.15 6 5.15 1.55 0 2.66-.25 3.78-.61.92-.29 1.53.2 1.53 1.22v1.17c0 .88-.45 1.39-1.15 1.69-1.48.67-3.21.92-4.88.92-6.23 0-10.21-3.37-10.21-9.49ZM82.65 77.79V57.3c0-.83.45-1.28 1.28-1.28h2.52c.81 0 1.28.45 1.28 1.28v10.88l5.73-6.23c.43-.49.92-.7 1.58-.7h2.92c1.15 0 1.5.76.7 1.58l-5.78 6.09 6.88 8.55c.68.86.32 1.6-.76 1.6h-2.72c-.68 0-1.13-.22-1.57-.76l-4.95-6.1-2.03 2.14v3.44c0 .83-.47 1.28-1.28 1.28h-2.52c-.83 0-1.28-.45-1.28-1.28ZM22.89 113.34l-1.67-18.6c-.14-1.64.65-2.61 2.23-2.75 1.57-.14 2.5.68 2.65 2.32l1.39 15.27c.02.16.13.25.29.25h.13c3.31-2.18 6.55-10.01 5.42-15.86-.31-1.62.76-1.94 2.09-1.94 1.6 0 2.67.85 2.99 2.68 1.08 6.28-3.19 16.29-8.34 19.18-1.04.59-2.14 1.19-3.19 1.19h-2.02c-1.15 0-1.85-.59-1.96-1.73ZM43.47 97.61h4.57c2.92 0 4.36 1.66 3.85 4.52l-.88 5.06c-.52 3.12.74 3.96 2.27 3.96.86 0 1.78-.29 2.54-.59 1.08-.43 1.95-.23 2.43.65.45.81.4 1.94-.47 2.63-.92.7-2.75 1.69-5.46 1.69-3.76 0-7.44-1.87-6.45-7.83l.72-4.25c.2-1.21-.23-1.71-1.46-1.71h-1.98c-1.28 0-2.04-.76-1.8-2.2.2-1.37.95-1.93 2.11-1.93Zm4.27-5.91c0-1.66 1.35-3.01 3.02-3.01s3.01 1.35 3.01 3.01-1.35 3.03-3.01 3.03-3.02-1.35-3.02-3.03ZM61.81 107.08c0-4.9 3.28-10.23 10.1-10.23 3.91 0 6.95 1.82 6.95 5.55 0 1.89-.77 3.55-2.83 3.55-1.22 0-2.12-.58-2.12-1.55 0-.43.18-.77.18-1.22 0-1.17-1.26-1.64-2.67-1.64-3.37 0-4.65 2.75-4.65 5.1 0 3.1 2.21 4.68 5.4 4.68 1.53 0 2.61-.36 3.78-.76.92-.31 1.57.22 1.4 1.22l-.2 1.21c-.13.79-.45 1.3-1.19 1.6-1.53.65-3.15.94-4.79.94-5.24 0-9.38-2.95-9.38-8.44ZM86.4 107.69l.99-5.96h-3.33c-1.28 0-1.91-.76-1.73-2.02l.07-.38c.16-1.17.81-1.73 1.98-1.73h3.67l.52-3.13c.23-1.35.85-1.91 2.2-1.91h.94c1.46 0 2.12.76 1.89 2.18l-.47 2.86h5.24c1.26 0 1.91.76 1.71 2l-.05.4c-.16 1.15-.86 1.73-2 1.73h-5.6l-.9 5.46c-.5 3.12.74 3.96 2.27 3.96.86 0 1.78-.29 2.54-.59 1.08-.43 1.94-.23 2.43.65.45.81.4 1.94-.47 2.63-.92.7-2.75 1.69-5.46 1.69-3.76 0-7.42-1.87-6.45-7.83ZM19.63 142.75c0-5.47 3.71-9.9 9.04-9.9 2.12 0 4.54.68 4.25 2.95-.27 2.12-2.34 1.75-3.65 1.75-2.99 0-4.66 2.16-4.66 4.97s1.58 4.29 3.96 4.29c2.54 0 4-1.8 4-3.42 0-1.26-.92-1.51-.92-2.81 0-1.51 1.3-2.14 2.4-2.14 2.03 0 3.42 2 3.42 4.72 0 4.43-3.67 8.37-9.17 8.37s-8.66-3.51-8.66-8.77ZM51.01 145.44l1.15-6.75-2.23-.04c-1.21-.02-2.25-.09-3.19-.23l-.97 5.67c-.22 1.15-1.04 2.14-2.48 2.14-1.57 0-2.5-1.22-2.23-2.79l1.22-6.72c-.92-.79-1.31-1.78-1.31-2.86 0-1.93 1.22-3.29 3.13-3.29 1.62 0 2.92 1.03 2.92 2.38s.43 1.44 2.72 1.44l5.33-.02c1.57 0 2.23 1.06 2.03 2.32l-1.4 8.61c-.16 1.04.25 1.93 1.24 1.93.86 0 1.62-.23 1.62 1.21 0 2.29-1.89 3.01-3.6 3.01-2.97 0-4.61-2.07-3.94-6ZM64.31 133.61h4.57c2.92 0 4.36 1.66 3.85 4.52l-.88 5.06c-.52 3.12.74 3.96 2.27 3.96.86 0 1.78-.29 2.54-.59 1.08-.43 1.95-.23 2.43.65.45.81.4 1.94-.47 2.63-.92.7-2.75 1.69-5.46 1.69-3.76 0-7.44-1.87-6.45-7.83l.72-4.25c.2-1.21-.23-1.71-1.46-1.71h-1.98c-1.28 0-2.04-.76-1.8-2.2.2-1.37.95-1.93 2.11-1.93Zm4.27-5.91c0-1.66 1.35-3.01 3.02-3.01s3.01 1.35 3.01 3.01-1.35 3.03-3.01 3.03-3.02-1.35-3.02-3.03ZM82.36 144.18c0-5.78 3.31-11.33 10.42-11.33 3.89 0 7.06 1.66 6.72 3.89-.22 1.28-1.53 2.25-3.35 1.49-1.28-.54-2.81-.81-3.89-.81-3.62 0-4.93 3.06-4.93 5.91S88.61 147 89.8 147c1.84 0 3.15-1.98 4.16-4.46.67-1.62 1.51-2.43 3.06-2.43s2.39 1.19 2.09 3.22l-.43 2.88c-.23 1.67-.18 2.32-.18 3.04 0 1.13-.16 1.82-1.82 1.82-1.53 0-3.01-.59-2.88-2.97l.04-.7c-1.37 2.72-3.44 4.12-5.87 4.12-3.17 0-5.6-2.36-5.6-7.35Z"/></svg>